<mxfile host="app.diagrams.net" modified="2022-12-05T00:03:40.343Z" agent="5.0 (Windows NT 10.0; Win64; x64) AppleWebKit/537.36 (KHTML, like Gecko) Chrome/108.0.0.0 Safari/537.36" etag="zWu37Fzakdt2-Q1lgJfJ" version="20.4.1" type="github">
  <diagram id="Lq-BEKD2umlgKsCQSvN1" name="Страница 1">
    <mxGraphModel dx="1422" dy="786" grid="1" gridSize="10" guides="1" tooltips="1" connect="1" arrows="1" fold="1" page="1" pageScale="1" pageWidth="827" pageHeight="1169" math="0" shadow="0">
      <root>
        <mxCell id="0" />
        <mxCell id="1" parent="0" />
        <mxCell id="7IekeeKu5knZCahhUKVt-30" value="" style="rounded=0;whiteSpace=wrap;html=1;" vertex="1" parent="1">
          <mxGeometry x="80" y="30" width="1260" height="580" as="geometry" />
        </mxCell>
        <mxCell id="7IekeeKu5knZCahhUKVt-9" value="" style="rounded=0;whiteSpace=wrap;html=1;" vertex="1" parent="1">
          <mxGeometry x="520" y="85" width="780" height="345" as="geometry" />
        </mxCell>
        <mxCell id="7IekeeKu5knZCahhUKVt-11" style="edgeStyle=orthogonalEdgeStyle;rounded=0;orthogonalLoop=1;jettySize=auto;html=1;entryX=0;entryY=0.5;entryDx=0;entryDy=0;" edge="1" parent="1" source="7IekeeKu5knZCahhUKVt-1" target="7IekeeKu5knZCahhUKVt-10">
          <mxGeometry relative="1" as="geometry" />
        </mxCell>
        <mxCell id="7IekeeKu5knZCahhUKVt-1" value="w1(context)" style="rounded=0;whiteSpace=wrap;html=1;" vertex="1" parent="1">
          <mxGeometry x="320" y="140" width="120" height="60" as="geometry" />
        </mxCell>
        <mxCell id="7IekeeKu5knZCahhUKVt-6" style="edgeStyle=orthogonalEdgeStyle;rounded=0;orthogonalLoop=1;jettySize=auto;html=1;entryX=0;entryY=0.5;entryDx=0;entryDy=0;" edge="1" parent="1" source="7IekeeKu5knZCahhUKVt-2" target="7IekeeKu5knZCahhUKVt-5">
          <mxGeometry relative="1" as="geometry" />
        </mxCell>
        <mxCell id="7IekeeKu5knZCahhUKVt-2" value="Actor" style="shape=umlActor;verticalLabelPosition=bottom;verticalAlign=top;html=1;outlineConnect=0;" vertex="1" parent="1">
          <mxGeometry x="30" y="140" width="30" height="60" as="geometry" />
        </mxCell>
        <mxCell id="7IekeeKu5knZCahhUKVt-7" style="edgeStyle=orthogonalEdgeStyle;rounded=0;orthogonalLoop=1;jettySize=auto;html=1;entryX=0;entryY=0.5;entryDx=0;entryDy=0;" edge="1" parent="1" source="7IekeeKu5knZCahhUKVt-5" target="7IekeeKu5knZCahhUKVt-1">
          <mxGeometry relative="1" as="geometry" />
        </mxCell>
        <mxCell id="7IekeeKu5knZCahhUKVt-8" value="status == NONE" style="edgeLabel;html=1;align=center;verticalAlign=middle;resizable=0;points=[];" vertex="1" connectable="0" parent="7IekeeKu5knZCahhUKVt-7">
          <mxGeometry x="-0.3" y="2" relative="1" as="geometry">
            <mxPoint x="15" y="-8" as="offset" />
          </mxGeometry>
        </mxCell>
        <mxCell id="7IekeeKu5knZCahhUKVt-28" style="edgeStyle=orthogonalEdgeStyle;rounded=0;orthogonalLoop=1;jettySize=auto;html=1;entryX=0;entryY=0.5;entryDx=0;entryDy=0;" edge="1" parent="1" source="7IekeeKu5knZCahhUKVt-5" target="7IekeeKu5knZCahhUKVt-10">
          <mxGeometry relative="1" as="geometry">
            <Array as="points">
              <mxPoint x="180" y="120" />
              <mxPoint x="560" y="120" />
            </Array>
          </mxGeometry>
        </mxCell>
        <mxCell id="7IekeeKu5knZCahhUKVt-5" value="" style="rhombus;whiteSpace=wrap;html=1;" vertex="1" parent="1">
          <mxGeometry x="140" y="130" width="80" height="80" as="geometry" />
        </mxCell>
        <mxCell id="7IekeeKu5knZCahhUKVt-13" style="edgeStyle=orthogonalEdgeStyle;rounded=0;orthogonalLoop=1;jettySize=auto;html=1;entryX=0;entryY=0.5;entryDx=0;entryDy=0;" edge="1" parent="1" source="7IekeeKu5knZCahhUKVt-10" target="7IekeeKu5knZCahhUKVt-12">
          <mxGeometry relative="1" as="geometry" />
        </mxCell>
        <mxCell id="7IekeeKu5knZCahhUKVt-27" style="edgeStyle=orthogonalEdgeStyle;rounded=0;orthogonalLoop=1;jettySize=auto;html=1;entryX=0.5;entryY=0;entryDx=0;entryDy=0;" edge="1" parent="1" source="7IekeeKu5knZCahhUKVt-10" target="7IekeeKu5knZCahhUKVt-15">
          <mxGeometry relative="1" as="geometry">
            <Array as="points">
              <mxPoint x="600" y="110" />
              <mxPoint x="990" y="110" />
            </Array>
          </mxGeometry>
        </mxCell>
        <mxCell id="7IekeeKu5knZCahhUKVt-10" value="" style="rhombus;whiteSpace=wrap;html=1;" vertex="1" parent="1">
          <mxGeometry x="560" y="130" width="80" height="80" as="geometry" />
        </mxCell>
        <mxCell id="7IekeeKu5knZCahhUKVt-16" style="edgeStyle=orthogonalEdgeStyle;rounded=0;orthogonalLoop=1;jettySize=auto;html=1;" edge="1" parent="1" source="7IekeeKu5knZCahhUKVt-12" target="7IekeeKu5knZCahhUKVt-15">
          <mxGeometry relative="1" as="geometry" />
        </mxCell>
        <mxCell id="7IekeeKu5knZCahhUKVt-12" value="w2(context)" style="rounded=0;whiteSpace=wrap;html=1;" vertex="1" parent="1">
          <mxGeometry x="758" y="140" width="120" height="60" as="geometry" />
        </mxCell>
        <mxCell id="7IekeeKu5knZCahhUKVt-14" value="true" style="edgeLabel;html=1;align=center;verticalAlign=middle;resizable=0;points=[];" vertex="1" connectable="0" parent="1">
          <mxGeometry x="690" y="160" as="geometry" />
        </mxCell>
        <mxCell id="7IekeeKu5knZCahhUKVt-18" style="edgeStyle=orthogonalEdgeStyle;rounded=0;orthogonalLoop=1;jettySize=auto;html=1;entryX=0;entryY=0.5;entryDx=0;entryDy=0;" edge="1" parent="1" source="7IekeeKu5knZCahhUKVt-15" target="7IekeeKu5knZCahhUKVt-17">
          <mxGeometry relative="1" as="geometry" />
        </mxCell>
        <mxCell id="7IekeeKu5knZCahhUKVt-19" value="status == ERROR" style="edgeLabel;html=1;align=center;verticalAlign=middle;resizable=0;points=[];" vertex="1" connectable="0" parent="7IekeeKu5knZCahhUKVt-18">
          <mxGeometry x="-0.2" y="-2" relative="1" as="geometry">
            <mxPoint x="8" y="-12" as="offset" />
          </mxGeometry>
        </mxCell>
        <mxCell id="7IekeeKu5knZCahhUKVt-26" style="edgeStyle=orthogonalEdgeStyle;rounded=0;orthogonalLoop=1;jettySize=auto;html=1;entryX=0;entryY=0.5;entryDx=0;entryDy=0;entryPerimeter=0;" edge="1" parent="1" source="7IekeeKu5knZCahhUKVt-15" target="7IekeeKu5knZCahhUKVt-24">
          <mxGeometry relative="1" as="geometry">
            <Array as="points">
              <mxPoint x="990" y="365" />
            </Array>
          </mxGeometry>
        </mxCell>
        <mxCell id="7IekeeKu5knZCahhUKVt-15" value="" style="rhombus;whiteSpace=wrap;html=1;" vertex="1" parent="1">
          <mxGeometry x="950" y="130" width="80" height="80" as="geometry" />
        </mxCell>
        <mxCell id="7IekeeKu5knZCahhUKVt-25" style="edgeStyle=orthogonalEdgeStyle;rounded=0;orthogonalLoop=1;jettySize=auto;html=1;" edge="1" parent="1" source="7IekeeKu5knZCahhUKVt-17" target="7IekeeKu5knZCahhUKVt-24">
          <mxGeometry relative="1" as="geometry" />
        </mxCell>
        <mxCell id="7IekeeKu5knZCahhUKVt-17" value="w2(context)" style="rounded=0;whiteSpace=wrap;html=1;" vertex="1" parent="1">
          <mxGeometry x="1160" y="140" width="120" height="60" as="geometry" />
        </mxCell>
        <mxCell id="7IekeeKu5knZCahhUKVt-20" value="" style="verticalLabelPosition=bottom;verticalAlign=top;html=1;shape=mxgraph.flowchart.or;" vertex="1" parent="1">
          <mxGeometry x="1185" y="500" width="70" height="70" as="geometry" />
        </mxCell>
        <mxCell id="7IekeeKu5knZCahhUKVt-21" value="First Chain" style="edgeLabel;html=1;align=center;verticalAlign=middle;resizable=0;points=[];" vertex="1" connectable="0" parent="1">
          <mxGeometry x="110" y="40" as="geometry" />
        </mxCell>
        <mxCell id="7IekeeKu5knZCahhUKVt-22" value="Inner Chain" style="edgeLabel;html=1;align=center;verticalAlign=middle;resizable=0;points=[];" vertex="1" connectable="0" parent="1">
          <mxGeometry x="555" y="96" as="geometry" />
        </mxCell>
        <mxCell id="7IekeeKu5knZCahhUKVt-29" style="edgeStyle=orthogonalEdgeStyle;rounded=0;orthogonalLoop=1;jettySize=auto;html=1;entryX=0.5;entryY=0;entryDx=0;entryDy=0;entryPerimeter=0;" edge="1" parent="1" source="7IekeeKu5knZCahhUKVt-24" target="7IekeeKu5knZCahhUKVt-20">
          <mxGeometry relative="1" as="geometry" />
        </mxCell>
        <mxCell id="7IekeeKu5knZCahhUKVt-24" value="" style="verticalLabelPosition=bottom;verticalAlign=top;html=1;shape=mxgraph.flowchart.or;" vertex="1" parent="1">
          <mxGeometry x="1185" y="330" width="70" height="70" as="geometry" />
        </mxCell>
      </root>
    </mxGraphModel>
  </diagram>
</mxfile>
